<svg xmlns="http://www.w3.org/2000/svg" version="1.1" xmlns:xlink="http://www.w3.org/1999/xlink" xmlns:svgjs="http://svgjs.dev/svgjs" width="1500" height="1500" viewBox="0 0 1500 1500"><rect width="1500" height="1500" fill="#333333"></rect><g transform="matrix(0.6666666666666666,0,0,0.6666666666666666,249.39393939393932,690.9299267518697)"><svg viewBox="0 0 396 47" data-background-color="#333333" preserveAspectRatio="xMidYMid meet" height="178" width="1500" xmlns="http://www.w3.org/2000/svg" xmlns:xlink="http://www.w3.org/1999/xlink"><g id="tight-bounds" transform="matrix(1,0,0,1,0.24000000000003752,-0.10426874161134947)"><svg viewBox="0 0 395.5199999999999 47.20853748322268" height="47.20853748322268" width="395.5199999999999"><g><svg viewBox="0 0 449.03718543565645 53.596250000000005" height="47.20853748322268" width="395.5199999999999"><g><svg viewBox="0 0 449.03718543565645 53.596250000000005" height="53.596250000000005" width="449.03718543565645"><g id="textblocktransform"><svg viewBox="0 0 449.03718543565645 53.596250000000005" height="53.596250000000005" width="449.03718543565645" id="textblock"><g><svg viewBox="0 0 449.03718543565645 53.596250000000005" height="53.596250000000005" width="449.03718543565645"><g><svg><g></g><g></g></svg></g><g><svg><g><svg></svg></g><g></g></svg></g><g id="text-0"><svg viewBox="0 0 449.03718543565645 53.596250000000005" height="53.596250000000005" width="449.03718543565645"><g transform="matrix(1,0,0,1,0,3.8430658672799005)"><svg width="395.52" viewBox="3.78 -32.52 285.35 33.120000000000005" height="45.910118265440204" data-palette-color="#7fc37e"><path d="M7.93-31.95L7.93 0 3.78 0 3.78-31.95 7.93-31.95ZM27.23-31.95L27.23 0 23.08 0 23.08-31.95 27.23-31.95ZM6.15-14.73L6.15-18.23 24.73-18.23 24.73-14.73 6.15-14.73ZM36.42 0L32.22 0 42.22-31.95 48.77-31.95 58.8 0 54.6 0 45.82-29.15 45.2-29.15 36.42 0ZM52.77-9.43L38.22-9.43 38.22-12.88 52.77-12.88 52.77-9.43ZM73.55 0.58L73.55 0.58Q67.62 0.58 64.66-2.75 61.7-6.08 61.7-12.2L61.7-12.2 61.7-19.78Q61.7-25.9 64.65-29.21 67.59-32.52 73.5-32.52L73.5-32.52Q75.4-32.52 76.96-32.18 78.52-31.83 79.75-31.28 80.97-30.73 81.82-30.13L81.82-30.13 82.17-26.28Q80.7-27.33 78.71-28.11 76.72-28.9 74.05-28.9L74.05-28.9Q70.02-28.9 67.97-26.51 65.92-24.13 65.92-19.73L65.92-19.73 65.92-12.35Q65.92-7.98 68-5.56 70.07-3.15 74.2-3.15L74.2-3.15Q76.84-3.15 78.88-3.93 80.92-4.7 82.42-5.83L82.42-5.83 82.07-1.88Q81.22-1.28 79.97-0.7 78.72-0.13 77.11 0.23 75.5 0.58 73.55 0.58ZM111.79 0L106.89 0 95.69-14.68 92.04-14.68 92.04-17.98 95.69-17.98 106.74-31.95 111.47-31.95 98.82-16.03 98.79-17.05 111.79 0ZM92.37 0L88.24 0 88.24-31.95 92.37-31.95 92.37 0ZM118.22 0L114.02 0 124.02-31.95 130.56-31.95 140.59 0 136.39 0 127.62-29.15 126.99-29.15 118.22 0ZM134.56-9.43L120.02-9.43 120.02-12.88 134.56-12.88 134.56-9.43ZM156.29 0L148.39 0 148.39-3.5 156.14-3.5Q160.39-3.5 162.53-5.81 164.66-8.13 164.66-12.43L164.66-12.43 164.66-19.55Q164.66-23.88 162.53-26.18 160.39-28.48 156.14-28.48L156.14-28.48 148.36-28.48 148.36-31.95 156.29-31.95Q162.49-31.95 165.66-28.76 168.84-25.58 168.84-19.58L168.84-19.58 168.84-12.4Q168.84-6.43 165.66-3.21 162.49 0 156.29 0L156.29 0ZM149.69 0L145.59 0 145.59-31.95 149.69-31.95 149.69 0ZM179.26 0L175.16 0 175.16-31.95 179.26-31.95 179.26 0ZM195.08 0L176.38 0 176.38-3.48 195.08-3.48 195.08 0ZM194.56-14.58L177.51-14.58 177.51-18.03 194.56-18.03 194.56-14.58ZM194.94-28.48L176.36-28.48 176.36-31.95 194.94-31.95 194.94-28.48ZM204.81 0L200.78 0 202.01-31.95 208.43-31.95 216.01-8.85 216.36-8.85 223.93-31.95 230.38-31.95 231.61 0 227.58 0 227.13-13.48 226.71-27.63 226.26-27.63 218.36-3.68 214.03-3.68 206.13-27.63 205.68-27.63 205.23-13.45 204.81 0ZM240.28 0L236.08 0 246.08-31.95 252.63-31.95 262.66 0 258.46 0 249.68-29.15 249.06-29.15 240.28 0ZM256.63-9.43L242.08-9.43 242.08-12.88 256.63-12.88 256.63-9.43ZM276.53 0.6L276.53 0.6Q272.9 0.6 270.45-0.86 268-2.33 266.76-5.13 265.53-7.93 265.53-11.9L265.53-11.9 265.53-19.45Q265.53-25.75 268.76-29.14 272-32.52 278.28-32.52L278.28-32.52Q280.53-32.52 282.37-32.16 284.2-31.8 285.63-31.21 287.05-30.63 288.08-29.98L288.08-29.98 288.45-26.23Q286.73-27.33 284.39-28.15 282.05-28.98 278.98-28.98L278.98-28.98Q274.33-28.98 272.04-26.5 269.75-24.03 269.75-19.38L269.75-19.38 269.75-11.93Q269.75-7.63 271.76-5.29 273.78-2.95 277.8-2.95L277.8-2.95Q279.85-2.95 281.31-3.65 282.78-4.35 283.72-5.5 284.65-6.65 285.08-8.03L285.08-8.03 285.08-15.9 285.75-14.43 278.23-14.43 278.23-17.88 289.13-17.88 289.13-5.25 285.05-5.28Q284.65-3.73 283.68-2.38 282.7-1.03 280.95-0.21 279.2 0.6 276.53 0.6ZM285.08 0L285.25-6.6 289.13-6.6 289.13 0 285.08 0Z" opacity="1" transform="matrix(1,0,0,1,0,0)" fill="#7fc37e" class="wordmark-text-0" data-fill-palette-color="primary"></path></svg></g><g><svg xmlns="http://www.w3.org/2000/svg" xmlns:xlink="http://www.w3.org/1999/xlink" xml:space="preserve" version="1.1" style="shape-rendering:geometricPrecision;text-rendering:geometricPrecision;image-rendering:optimizeQuality;" viewBox="125.56 32.77 595.55 781.12" x="408.17375" y="0" fill-rule="evenodd" clip-rule="evenodd" height="53.596250000000005" width="40.86343543565649" class="icon-dxe-0" data-fill-palette-color="accent" id="dxe-0"><g fill="#fefee2" data-fill-palette-color="accent"><path class="" d="M637.96 636.9C618.17 550.31 627.99 446.87 524.68 461.04L556.51 421.12H513.35V369.33C598.23 345.39 563.37 300.45 503.52 312.19 485.77 250.75 465.48 218.58 438.06 237.15 427.97 243.27 418.16 242.88 408.6 237.15 381.18 218.58 360.89 250.75 343.14 312.19 283.29 300.45 248.43 345.39 333.31 369.33V421.12H290.15L321.98 461.04C218.67 446.87 228.49 550.31 208.7 636.9 221.23 656.55 236.36 673.56 253.38 687.99V762.71H304.14V779.37H258.27V813.89H588.4V779.37H542.53V762.71H593.29V687.98C610.31 673.56 625.43 656.54 637.96 636.9M528.59 273.69V146.16C501.32 141.45 481.25 117.63 481.25 89.89 481.25 58.36 506.84 32.77 538.37 32.77 569.89 32.77 595.49 58.37 595.49 89.89 595.49 117.61 575.41 141.45 548.16 146.16V273.69zM663.99 138.56C695.51 138.56 721.11 164.16 721.11 195.68 721.11 223.28 701.2 247.06 674.1 251.91L673.74 388.23C673.82 398.74 670.29 408.13 663.49 416.12L625.27 460.98 610.44 448.35 648.65 403.46C652.41 398.99 654.21 394.07 654.21 388.23L654.61 252.03C627.16 247.48 606.87 223.58 606.87 195.68 606.87 164.15 632.46 138.56 663.99 138.56M663.99 158.13C643.27 158.13 626.45 174.95 626.45 195.68 626.45 216.42 643.25 233.23 663.99 233.23 684.78 233.23 701.54 216.47 701.54 195.68 701.54 174.93 684.75 158.13 663.99 158.13M538.37 52.34C517.65 52.34 500.82 69.16 500.82 89.89S517.63 127.43 538.37 127.43C559.16 127.43 575.92 110.67 575.92 89.89 575.92 69.13 559.13 52.34 538.37 52.34M318.08 273.69V146.16C345.35 141.45 365.42 117.63 365.42 89.89 365.42 58.36 339.83 32.77 308.3 32.77 276.78 32.77 251.18 58.37 251.18 89.89 251.18 117.61 271.26 141.45 298.51 146.16V273.69zM182.68 138.56C151.16 138.56 125.56 164.16 125.56 195.68 125.56 223.28 145.47 247.06 172.57 251.91L172.93 388.23C172.85 398.74 176.38 408.13 183.18 416.12L221.4 460.98 236.23 448.35 198.02 403.46C194.26 398.99 192.46 394.07 192.46 388.23L192.06 252.03C219.51 247.48 239.8 223.58 239.8 195.68 239.8 164.15 214.21 138.56 182.68 138.56M182.68 158.13C203.4 158.13 220.22 174.95 220.22 195.68 220.22 216.42 203.42 233.23 182.68 233.23 161.89 233.23 145.13 216.47 145.13 195.68 145.13 174.93 161.92 158.13 182.68 158.13M308.3 52.34C329.02 52.34 345.85 69.16 345.85 89.89S329.04 127.43 308.3 127.43C287.51 127.43 270.75 110.67 270.75 89.89 270.75 69.13 287.54 52.34 308.3 52.34M583.51 565.28H263.16V752.93H583.51zM496.69 376.24C496.69 414.21 469.61 489.85 423.33 489.85S349.97 414.21 349.97 376.24C391.63 395.98 455.03 395.98 496.69 376.24" fill="#fefee2" data-fill-palette-color="accent"></path></g></svg></g></svg></g></svg></g></svg></g></svg></g><g></g></svg></g><defs></defs></svg><rect width="395.5199999999999" height="47.20853748322268" fill="none" stroke="none" visibility="hidden"></rect></g></svg></g></svg>